<svg xmlns="http://www.w3.org/2000/svg" xmlns:xlink="http://www.w3.org/1999/xlink" width="419" zoomAndPan="magnify" viewBox="0 0 314.25 103.5" height="138" preserveAspectRatio="xMidYMid meet" version="1.0"><defs><g/><clipPath id="5f31c1240c"><rect x="0" width="266" y="0" height="67"/></clipPath><clipPath id="ff05ca7bdb"><path d="M 0.382812 91 L 68 91 L 68 100 L 0.382812 100 Z M 0.382812 91 " clip-rule="nonzero"/></clipPath><clipPath id="197fe1e849"><path d="M 0.382812 31 L 8 31 L 8 101 L 0.382812 101 Z M 0.382812 31 " clip-rule="nonzero"/></clipPath><clipPath id="d01c9f799a"><path d="M 245 3 L 313.121094 3 L 313.121094 12 L 245 12 Z M 245 3 " clip-rule="nonzero"/></clipPath></defs><g transform="matrix(1, 0, 0, 1, 24, 18)"><g clip-path="url(#5f31c1240c)"><g fill="#000000" fill-opacity="1"><g transform="translate(0.326994, 47.868171)"><g><path d="M 10.921875 -31.296875 L 3.03125 -35.140625 C 3.101562 -35.378906 3.210938 -35.722656 3.359375 -36.171875 C 3.503906 -36.617188 3.929688 -37.390625 4.640625 -38.484375 C 5.347656 -39.585938 6.179688 -40.566406 7.140625 -41.421875 C 8.097656 -42.273438 9.5 -43.046875 11.34375 -43.734375 C 13.195312 -44.429688 15.28125 -44.78125 17.59375 -44.78125 C 21.789062 -44.78125 25.25 -43.578125 27.96875 -41.171875 C 30.6875 -38.773438 32.046875 -35.710938 32.046875 -31.984375 C 32.046875 -28.503906 30.75 -25.75 28.15625 -23.71875 C 31.882812 -21.445312 33.75 -18.085938 33.75 -13.640625 C 33.75 -9.453125 32.210938 -6 29.140625 -3.28125 C 26.066406 -0.5625 22.164062 0.796875 17.4375 0.796875 C 14.90625 0.796875 12.609375 0.425781 10.546875 -0.3125 C 8.492188 -1.0625 6.890625 -1.957031 5.734375 -3 C 4.578125 -4.050781 3.613281 -5.109375 2.84375 -6.171875 C 2.082031 -7.242188 1.5625 -8.15625 1.28125 -8.90625 L 0.90625 -10.015625 L 10.1875 -14.546875 C 10.1875 -14.367188 10.210938 -14.128906 10.265625 -13.828125 C 10.316406 -13.523438 10.5 -12.984375 10.8125 -12.203125 C 11.132812 -11.421875 11.523438 -10.738281 11.984375 -10.15625 C 12.453125 -9.570312 13.15625 -9.039062 14.09375 -8.5625 C 15.039062 -8.082031 16.132812 -7.84375 17.375 -7.84375 C 19.257812 -7.84375 20.785156 -8.351562 21.953125 -9.375 C 23.128906 -10.40625 23.71875 -11.828125 23.71875 -13.640625 C 23.71875 -15.523438 23.101562 -17.070312 21.875 -18.28125 C 20.65625 -19.488281 19.15625 -20.09375 17.375 -20.09375 L 15.453125 -19.78125 L 15.453125 -26.34375 L 17.640625 -26.34375 C 19.023438 -26.34375 20.25 -26.875 21.3125 -27.9375 C 22.382812 -29 22.921875 -30.3125 22.921875 -31.875 C 22.921875 -33.257812 22.378906 -34.414062 21.296875 -35.34375 C 20.210938 -36.269531 18.941406 -36.734375 17.484375 -36.734375 C 16.453125 -36.734375 15.519531 -36.546875 14.6875 -36.171875 C 13.851562 -35.796875 13.210938 -35.34375 12.765625 -34.8125 C 12.328125 -34.28125 11.957031 -33.742188 11.65625 -33.203125 C 11.351562 -32.671875 11.164062 -32.226562 11.09375 -31.875 Z M 10.921875 -31.296875 "/></g></g></g><g fill="#000000" fill-opacity="1"><g transform="translate(31.237443, 47.868171)"><g><path d="M 5.0625 -3.390625 C 2.5 -6.179688 1.21875 -9.597656 1.21875 -13.640625 C 1.21875 -17.691406 2.5 -21.125 5.0625 -23.9375 C 7.625 -26.75 10.878906 -28.15625 14.828125 -28.15625 C 18.453125 -28.15625 21.4375 -27.015625 23.78125 -24.734375 L 23.78125 -45.84375 L 33.21875 -45.84375 L 33.21875 0 L 23.890625 0 L 23.890625 -3.09375 L 23.78125 -3.09375 C 21.4375 -0.5 18.453125 0.796875 14.828125 0.796875 C 10.878906 0.796875 7.625 -0.597656 5.0625 -3.390625 Z M 13.078125 -18.28125 C 11.859375 -17.070312 11.25 -15.523438 11.25 -13.640625 C 11.25 -11.765625 11.832031 -10.226562 13 -9.03125 C 14.175781 -7.84375 15.722656 -7.25 17.640625 -7.25 C 19.492188 -7.25 21.015625 -7.851562 22.203125 -9.0625 C 23.390625 -10.269531 23.984375 -11.796875 23.984375 -13.640625 C 23.984375 -15.523438 23.367188 -17.070312 22.140625 -18.28125 C 20.921875 -19.488281 19.421875 -20.09375 17.640625 -20.09375 C 15.828125 -20.09375 14.304688 -19.488281 13.078125 -18.28125 Z M 13.078125 -18.28125 "/></g></g></g><g fill="#000000" fill-opacity="1"><g transform="translate(63.107228, 47.868171)"><g><path d="M 10.125 -27.34375 L 16.796875 -12.46875 L 23.453125 -27.34375 L 34.65625 -27.34375 L 20 0 L 13.59375 0 L -1.0625 -27.34375 Z M 10.125 -27.34375 "/></g></g></g><g fill="#000000" fill-opacity="1"><g transform="translate(92.152311, 47.868171)"><g><path d="M 30.875 -12.375 L 11.03125 -12.375 C 11.03125 -10.445312 11.648438 -9.019531 12.890625 -8.09375 C 14.140625 -7.175781 15.492188 -6.71875 16.953125 -6.71875 C 18.484375 -6.71875 19.691406 -6.921875 20.578125 -7.328125 C 21.460938 -7.734375 22.476562 -8.539062 23.625 -9.75 L 30.4375 -6.34375 C 27.59375 -1.582031 22.867188 0.796875 16.265625 0.796875 C 12.140625 0.796875 8.597656 -0.613281 5.640625 -3.4375 C 2.691406 -6.257812 1.21875 -9.660156 1.21875 -13.640625 C 1.21875 -17.628906 2.691406 -21.046875 5.640625 -23.890625 C 8.597656 -26.734375 12.140625 -28.15625 16.265625 -28.15625 C 20.597656 -28.15625 24.125 -26.898438 26.84375 -24.390625 C 29.5625 -21.878906 30.921875 -18.296875 30.921875 -13.640625 C 30.921875 -13.003906 30.90625 -12.582031 30.875 -12.375 Z M 11.296875 -17.59375 L 21.703125 -17.59375 C 21.484375 -19.007812 20.921875 -20.097656 20.015625 -20.859375 C 19.109375 -21.628906 17.945312 -22.015625 16.53125 -22.015625 C 14.96875 -22.015625 13.722656 -21.601562 12.796875 -20.78125 C 11.867188 -19.96875 11.367188 -18.90625 11.296875 -17.59375 Z M 11.296875 -17.59375 "/></g></g></g><g fill="#000000" fill-opacity="1"><g transform="translate(119.7584, 47.868171)"><g><path d="M 3.203125 0 L 3.203125 -27.34375 L 12.640625 -27.34375 L 12.640625 -24.46875 L 12.734375 -24.46875 C 15.191406 -26.925781 17.804688 -28.15625 20.578125 -28.15625 C 21.929688 -28.15625 23.273438 -27.972656 24.609375 -27.609375 C 25.941406 -27.253906 27.21875 -26.703125 28.4375 -25.953125 C 29.664062 -25.210938 30.660156 -24.15625 31.421875 -22.78125 C 32.191406 -21.414062 32.578125 -19.828125 32.578125 -18.015625 L 32.578125 0 L 23.140625 0 L 23.140625 -15.453125 C 23.140625 -16.878906 22.6875 -18.125 21.78125 -19.1875 C 20.875 -20.257812 19.691406 -20.796875 18.234375 -20.796875 C 16.804688 -20.796875 15.515625 -20.242188 14.359375 -19.140625 C 13.210938 -18.035156 12.640625 -16.804688 12.640625 -15.453125 L 12.640625 0 Z M 3.203125 0 "/></g></g></g><g fill="#000000" fill-opacity="1"><g transform="translate(150.455669, 47.868171)"><g><path d="M 5.0625 -3.390625 C 2.5 -6.179688 1.21875 -9.597656 1.21875 -13.640625 C 1.21875 -17.691406 2.5 -21.125 5.0625 -23.9375 C 7.625 -26.75 10.878906 -28.15625 14.828125 -28.15625 C 18.453125 -28.15625 21.4375 -27.015625 23.78125 -24.734375 L 23.78125 -45.84375 L 33.21875 -45.84375 L 33.21875 0 L 23.890625 0 L 23.890625 -3.09375 L 23.78125 -3.09375 C 21.4375 -0.5 18.453125 0.796875 14.828125 0.796875 C 10.878906 0.796875 7.625 -0.597656 5.0625 -3.390625 Z M 13.078125 -18.28125 C 11.859375 -17.070312 11.25 -15.523438 11.25 -13.640625 C 11.25 -11.765625 11.832031 -10.226562 13 -9.03125 C 14.175781 -7.84375 15.722656 -7.25 17.640625 -7.25 C 19.492188 -7.25 21.015625 -7.851562 22.203125 -9.0625 C 23.390625 -10.269531 23.984375 -11.796875 23.984375 -13.640625 C 23.984375 -15.523438 23.367188 -17.070312 22.140625 -18.28125 C 20.921875 -19.488281 19.421875 -20.09375 17.640625 -20.09375 C 15.828125 -20.09375 14.304688 -19.488281 13.078125 -18.28125 Z M 13.078125 -18.28125 "/></g></g></g><g fill="#000000" fill-opacity="1"><g transform="translate(182.325454, 47.868171)"><g><path d="M 5.78125 -3.25 C 2.738281 -5.945312 1.21875 -9.410156 1.21875 -13.640625 C 1.21875 -17.878906 2.800781 -21.359375 5.96875 -24.078125 C 9.132812 -26.796875 13.046875 -28.15625 17.703125 -28.15625 C 22.285156 -28.15625 26.148438 -26.785156 29.296875 -24.046875 C 32.441406 -21.304688 34.015625 -17.835938 34.015625 -13.640625 C 34.015625 -9.453125 32.476562 -6 29.40625 -3.28125 C 26.332031 -0.5625 22.429688 0.796875 17.703125 0.796875 C 12.796875 0.796875 8.820312 -0.550781 5.78125 -3.25 Z M 13.078125 -18.28125 C 11.859375 -17.070312 11.25 -15.523438 11.25 -13.640625 C 11.25 -11.765625 11.832031 -10.226562 13 -9.03125 C 14.175781 -7.84375 15.722656 -7.25 17.640625 -7.25 C 19.492188 -7.25 21.015625 -7.851562 22.203125 -9.0625 C 23.390625 -10.269531 23.984375 -11.796875 23.984375 -13.640625 C 23.984375 -15.523438 23.367188 -17.070312 22.140625 -18.28125 C 20.921875 -19.488281 19.421875 -20.09375 17.640625 -20.09375 C 15.828125 -20.09375 14.304688 -19.488281 13.078125 -18.28125 Z M 13.078125 -18.28125 "/></g></g></g><g fill="#000000" fill-opacity="1"><g transform="translate(213.022735, 47.868171)"><g><path d="M 3.203125 0 L 3.203125 -27.34375 L 12.640625 -27.34375 L 12.640625 -23.40625 L 12.734375 -23.40625 C 12.804688 -23.550781 12.921875 -23.726562 13.078125 -23.9375 C 13.242188 -24.144531 13.59375 -24.515625 14.125 -25.046875 C 14.65625 -25.585938 15.222656 -26.070312 15.828125 -26.5 C 16.429688 -26.925781 17.210938 -27.304688 18.171875 -27.640625 C 19.140625 -27.984375 20.117188 -28.15625 21.109375 -28.15625 C 22.140625 -28.15625 23.148438 -28.007812 24.140625 -27.71875 C 25.140625 -27.4375 25.875 -27.15625 26.34375 -26.875 L 27.078125 -26.4375 L 23.140625 -18.453125 C 21.960938 -19.441406 20.328125 -19.9375 18.234375 -19.9375 C 17.097656 -19.9375 16.117188 -19.6875 15.296875 -19.1875 C 14.484375 -18.695312 13.90625 -18.09375 13.5625 -17.375 C 13.226562 -16.664062 12.988281 -16.0625 12.84375 -15.5625 C 12.707031 -15.070312 12.640625 -14.679688 12.640625 -14.390625 L 12.640625 0 Z M 3.203125 0 "/></g></g></g><g fill="#000000" fill-opacity="1"><g transform="translate(235.032718, 47.868171)"><g><path d="M 29.640625 -27.34375 L 16.09375 -7.203125 L 28.578125 -7.203125 L 28.578125 0 L 0.265625 0 L 13.8125 -20.15625 L 2.5 -20.15625 L 2.5 -27.34375 Z M 29.640625 -27.34375 "/></g></g></g></g></g><g clip-path="url(#ff05ca7bdb)"><path stroke-linecap="butt" transform="matrix(0.746394, 0, 0, 0.746394, 0.465207, 91.80299)" fill="none" stroke-linejoin="miter" d="M -0.000486158 5.000261 L 84.431482 5.000261 " stroke="#000000" stroke-width="10" stroke-opacity="1" stroke-miterlimit="4"/></g><g clip-path="url(#197fe1e849)"><path stroke-linecap="butt" transform="matrix(0, 0.746394, -0.746394, 0, 7.925322, 35.481393)" fill="none" stroke-linejoin="miter" d="M -0.00123799 5.002605 L 82.462936 5.002605 " stroke="#000000" stroke-width="10" stroke-opacity="1" stroke-miterlimit="4"/></g><g clip-path="url(#d01c9f799a)"><path stroke-linecap="butt" transform="matrix(-0.746394, 0, 0, -0.746394, 311.874086, 11.039171)" fill="none" stroke-linejoin="miter" d="M -0.00122451 4.998133 L 84.430744 4.998133 " stroke="#000000" stroke-width="10" stroke-opacity="1" stroke-miterlimit="4"/></g><path stroke-linecap="butt" transform="matrix(0, -0.746394, 0.746394, 0, 304.413963, 67.360775)" fill="none" stroke-linejoin="miter" d="M 0.00187623 4.99812 L 82.460817 4.99812 " stroke="#000000" stroke-width="10" stroke-opacity="1" stroke-miterlimit="4"/></svg>